<?xml version="1.0" encoding="UTF-8" standalone="no"?>
<svg
   version="1.1"
   width="161.57481"
   height="127.55907"
   viewBox="0 0 538.58271 425.19689"
   id="svg127"
   sodipodi:docname="logo.svg"
   inkscape:version="1.4.3 (unknown)"
   xmlns:inkscape="http://www.inkscape.org/namespaces/inkscape"
   xmlns:sodipodi="http://sodipodi.sourceforge.net/DTD/sodipodi-0.dtd"
   xmlns="http://www.w3.org/2000/svg"
   xmlns:svg="http://www.w3.org/2000/svg">
  <defs
     id="defs127" />
  <sodipodi:namedview
     id="namedview127"
     pagecolor="#ffffff"
     bordercolor="#000000"
     borderopacity="0.25"
     inkscape:showpageshadow="2"
     inkscape:pageopacity="0.0"
     inkscape:pagecheckerboard="0"
     inkscape:deskcolor="#d1d1d1"
     inkscape:document-units="in"
     inkscape:zoom="1.5557531"
     inkscape:cx="308.53224"
     inkscape:cy="170.97828"
     inkscape:window-width="1920"
     inkscape:window-height="1128"
     inkscape:window-x="0"
     inkscape:window-y="0"
     inkscape:window-maximized="1"
     inkscape:current-layer="svg127" />
  <path
     d="M 0,0 V 425.1969 H 538.5827 V 0 Z"
     style="fill:none"
     id="path1" />
  <g
     id="Layer1000"
     transform="translate(0.2021,-0.0149)">
    <g
       id="Layer1001">
      <path
         d="m 491.9264,49.7239 c 0.8977,-26.38 -4.5323,-29.385 -15.1064,-29.5857 -9.2052,-0.1746 -16.7837,4.8484 -13.6894,29.5857 -2.6716,0 -5.3461,0 -8.0197,0 -1.3507,-21.8795 2.3468,-37.7178 21.7091,-37.6279 21.4013,0.0995 22.9779,16.7519 22.2755,37.6279 -2.3905,0 0,0 -7.1691,0 z"
         style="fill:#7bb8bf;fill-rule:evenodd"
         id="path2" />
      <path
         d="M 477.4312,125.4644 C 443.7007,99.7349 445.3547,98.5452 443.8842,55.2783 h 33.2942 1.4432 33.2942 c -1.4705,43.2669 0.1835,44.4566 -33.547,70.1861 l -0.4688,0.3575 z"
         style="fill:#ffffff;fill-rule:evenodd"
         id="path3" />
      <path
         d="M 477.4981,118.6142 C 448.5795,95.3959 449.9976,94.3223 448.7369,55.2783 h 28.5444 1.2374 28.5444 c -1.2607,39.044 0.1574,40.1176 -28.7612,63.3359 l -0.4019,0.3226 z"
         style="fill:#7bb8bf;fill-rule:evenodd"
         id="path4" />
      <path
         d="m 481.4186,78.2986 c 1.2598,-2.5163 3.5108,-3.5317 3.5108,-7.3009 0,-3.7693 -3.4104,-7.6173 -7.6176,-7.6173 -4.2069,0 -7.6172,3.867 -7.6172,7.6173 0,3.7502 2.2223,4.6 3.5129,6.9556 0.9236,1.6861 -2.1277,2.8829 -1.927,6.3842 l 0.1103,6.4704 c 0.0397,2.3354 1.9131,4.2517 4.2517,4.2517 h 3.4489 c 2.3386,0 4.284,-1.9131 4.2517,-4.2517 l -0.0899,-6.4687 c 0.2489,-3.503 -2.7363,-4.2389 -1.8346,-6.0406 z"
         style="fill:#ffffff;fill-rule:evenodd;stroke:#ffffff;stroke-width:0.216;stroke-linecap:round;stroke-linejoin:round;stroke-dasharray:none"
         id="path5" />
      <path
         d="m 477.3475,132.2612 c -39.7491,-30.3205 -37.8,-31.7226 -39.5328,-82.7096 h 39.2349 1.7008 39.2349 c -1.7328,50.987 0.2163,52.3891 -39.5328,82.7096 l -0.5525,0.4212 z m 0.0836,-6.7969 C 443.7009,99.735 445.3549,98.5453 443.8843,55.2784 h 33.294 1.4434 33.294 c -1.4706,43.2669 0.1834,44.4566 -33.5468,70.1859 L 477.9,125.822 Z"
         style="fill:#0a3470;fill-rule:evenodd;stroke:#0a3470;stroke-width:0.75;stroke-linecap:round;stroke-linejoin:round;stroke-dasharray:none"
         id="path6" />
    </g>
    <g
       id="Layer1002">
      <path
         d="M 287.6042,19.4613 233.353,60.8288"
         style="fill:none;stroke:#0a3470;stroke-width:1.1001;stroke-linecap:butt;stroke-linejoin:miter;stroke-dasharray:none"
         id="path7" />
      <path
         d="M 287.6043,19.4613 233.7826,99.102 287.5425,48.2573 234.7534,60.5075"
         style="fill:none;stroke:#0a3470;stroke-width:1.1001;stroke-linecap:butt;stroke-linejoin:miter;stroke-dasharray:none"
         id="path8" />
      <path
         d="m 234.5,61.3556 55.4003,18.0542 -56.1177,19.6922 57.8766,13.6653"
         style="fill:none;stroke:#0a3470;stroke-width:1.1001;stroke-linecap:butt;stroke-linejoin:miter;stroke-dasharray:none"
         id="path9" />
      <path
         d="m 233.9291,100.0372 53.8597,42.3204 -54.4359,-81.5289 56.1106,51.4547"
         style="fill:none;stroke:#0a3470;stroke-width:1.1001;stroke-linecap:butt;stroke-linejoin:miter;stroke-dasharray:none"
         id="path10" />
      <path
         d="m 302.6463,18.3784 56.7746,61.0813 -58.4235,-0.1052"
         style="fill:none;stroke:#0a3470;stroke-width:1.1001;stroke-linecap:butt;stroke-linejoin:miter;stroke-dasharray:none"
         id="path11" />
      <path
         d="m 301.8974,47.8437 56.956,31.0057"
         style="fill:none;stroke:#0a3470;stroke-width:1.1001;stroke-linecap:butt;stroke-linejoin:miter;stroke-dasharray:none"
         id="path12" />
      <path
         d="M 306.1423,139.7356 360.3285,78.4329"
         style="fill:none;stroke:#0a3470;stroke-width:1.1001;stroke-linecap:butt;stroke-linejoin:miter;stroke-dasharray:none"
         id="path13" />
      <path
         d="M 304.0197,111.0195 360.3285,78.4329"
         style="fill:none;stroke:#0a3470;stroke-width:1.1001;stroke-linecap:butt;stroke-linejoin:miter;stroke-dasharray:none"
         id="path14" />
      <path
         d="m 296.2564,9.5525 a 8.5041,8.5041 0 0 1 8.5041,8.5041 8.5041,8.5041 0 1 1 -8.5041,-8.5041 z"
         style="fill:#144e9d;fill-rule:evenodd;stroke:#0a3470;stroke-width:1.1999;stroke-linecap:butt;stroke-linejoin:miter;stroke-dasharray:none"
         id="path15" />
      <path
         d="m 295.5446,40.1939 a 8.5041,8.5041 0 0 1 8.5041,8.5041 8.5041,8.5041 0 1 1 -8.5041,-8.5041 z"
         style="fill:#144e9d;fill-rule:evenodd;stroke:#0a3470;stroke-width:1.1999;stroke-linecap:butt;stroke-linejoin:miter;stroke-dasharray:none"
         id="path16" />
      <path
         d="m 296.1801,102.4654 a 8.5041,8.5041 0 0 1 8.5041,8.5041 8.5041,8.5041 0 1 1 -8.5041,-8.5041 z"
         style="fill:#144e9d;fill-rule:evenodd;stroke:#0a3470;stroke-width:1.1999;stroke-linecap:butt;stroke-linejoin:miter;stroke-dasharray:none"
         id="path17" />
      <path
         d="m 295.694,70.9988 a 8.5041,8.5041 0 0 1 8.5041,8.5041 8.5041,8.5041 0 1 1 -8.5041,-8.5041 z"
         style="fill:#0a3470;fill-rule:evenodd;stroke:#0a3470;stroke-width:1.1999;stroke-linecap:butt;stroke-linejoin:miter;stroke-dasharray:none"
         id="path18" />
      <path
         d="m 296.2108,131.0094 a 12.7562,12.7562 0 0 1 12.7562,12.7561 12.7562,12.7562 0 1 1 -12.7562,-12.7561 z"
         style="fill:#7bb8bf;fill-rule:evenodd;stroke:#0a3470;stroke-width:1.1999;stroke-linecap:butt;stroke-linejoin:miter;stroke-dasharray:none"
         id="path19" />
      <path
         d="m 226.0918,92.3916 a 8.5041,8.5041 0 0 1 8.5041,8.5041 8.5041,8.5041 0 1 1 -8.5041,-8.5041 z"
         style="fill:#3076b2;fill-rule:evenodd;stroke:#0a3470;stroke-width:1.1999;stroke-linecap:butt;stroke-linejoin:miter;stroke-dasharray:none"
         id="path20" />
      <path
         d="m 226.0918,52.8517 a 8.5041,8.5041 0 0 1 8.5041,8.5041 8.5041,8.5041 0 1 1 -8.5041,-8.5041 z"
         style="fill:#144e9d;fill-rule:evenodd;stroke:#0a3470;stroke-width:1.1999;stroke-linecap:butt;stroke-linejoin:miter;stroke-dasharray:none"
         id="path21" />
      <path
         d="m 366.9904,72.4161 a 8.5041,8.5041 0 0 1 8.5041,8.5041 8.5041,8.5041 0 1 1 -8.5041,-8.5041 z"
         style="fill:#0a3470;fill-rule:evenodd;stroke:#0a3470;stroke-width:1.1999;stroke-linecap:butt;stroke-linejoin:miter;stroke-dasharray:none"
         id="path22" />
    </g>
    <g
       id="Layer1003">
      <path
         d="m 132.3972,178.9013 c 0,12.3885 -4.1207,22.3886 -12.3882,29.9999 -8.2678,7.6116 -18.5565,11.4174 -30.8926,11.4174 H 77.7518 V 252.917 H 49.5626 V 139.5312 h 40.1576 c 13.4382,0 23.9893,3.6745 31.6534,11.0236 7.3491,7.2443 11.0236,16.693 11.0236,28.3465 z M 86.7804,162.6809 h -9.0286 v 34.4883 h 8.8713 c 5.0655,0 9.1338,-1.5486 12.2046,-4.6457 3.071,-3.0972 4.5932,-7.1655 4.5932,-12.2049 0,-4.9343 -1.5486,-9.1074 -4.6718,-12.5195 -3.1235,-3.4123 -7.1129,-5.1182 -11.9687,-5.1182 z"
         style="fill:#3076b2;fill-rule:evenodd"
         id="path23" />
      <path
         d="m 192.2828,252.917 v -11.2841 c -9.7886,0 -18.5579,-2.6059 -26.3072,-7.8174 -7.7494,-5.2115 -13.4368,-12.3038 -17.0623,-21.2769 -2.3564,-5.7101 -3.5348,-11.7374 -3.5348,-18.0819 0,-13.1423 4.5771,-24.177 13.7316,-33.1047 9.1542,-8.9277 20.2119,-13.3914 33.1727,-13.3914 v -8.4294 h 24.0639 v 8.4294 c 9.6982,0 18.4444,2.5829 26.2392,7.7493 7.7947,5.1662 13.5501,12.1904 17.2661,21.0728 2.266,5.6194 3.3987,11.5109 3.3987,17.674 0,13.3237 -4.5317,24.5171 -13.5952,33.5806 -9.0638,9.0638 -20.1666,13.5956 -33.3088,13.5956 v 11.2841 z m 45.6806,-58.5961 c 0,-7.0696 -1.8581,-13.0969 -5.574,-18.0819 -3.9881,-5.4383 -9.3357,-8.1573 -16.0427,-8.1573 v 53.43 c 6.8882,0 12.3264,-2.9004 16.3145,-8.7012 3.5348,-5.1662 5.3022,-11.3296 5.3022,-18.4896 z m -67.2973,0 c 0,5.2569 0.9969,10.0151 2.9911,14.275 2.175,4.8943 5.3473,8.4745 9.5168,10.7405 2.7189,1.4502 5.7551,2.1753 9.1088,2.1753 v -53.43 c -6.7071,0 -12.1,2.8097 -16.1785,8.4291 -3.6255,4.985 -5.4382,10.9216 -5.4382,17.8101 z"
         style="fill:#3076b2;fill-rule:evenodd"
         id="path24" />
      <path
         d="m 425.7136,252.917 h -30.7874 l -38.0313,-55.5905 v 55.5905 h -24.508 l 1.0647,-113.3858 h 23.4433 v 52.2836 l 36.5352,-52.2836 h 30.1312 l -38.3987,55.0655 z"
         style="fill:#3076b2;fill-rule:evenodd"
         id="path25" />
      <path
         d="m 519.5381,158.9014 h -32.2835 v 94.0156 h -25.6691 v -94.0156 h -32.1262 v -19.3702 h 90.0788 z"
         style="fill:#3076b2;fill-rule:evenodd"
         id="path26" />
      <path
         d="M 308.283,252.917 H 282.7709 V 170.1164 H 308.283 Z"
         style="fill:#3076b2;fill-rule:evenodd"
         id="path27" />
    </g>
    <g
       id="Layer1004">
      <path
         d="m 97.9078,276.5426 v 37.8533 4.252 -4.252 4.252 -4.252 4.252 -4.252 4.252 -4.252 4.252 -4.252 4.252 -4.252 4.252 -4.252 4.252 -4.252 4.252 -4.252 4.252 -4.252 4.252 -4.252 4.252 -4.252 4.252 -4.252 4.252 -4.252 4.252 -4.252 4.252 -4.252 4.252 -4.252 4.252 -4.252 4.252 -4.252 4.252 -4.252 4.252 -4.252 4.252 -4.252 4.252 -4.252 4.252 -4.252 4.252 -4.252"
         style="fill:none;stroke:#1a4d7a;stroke-width:4;stroke-linecap:round;stroke-linejoin:round;stroke-dasharray:none"
         id="path28" />
      <path
         d="m 97.9078,389.749 v -37.8533 -4.2519 4.2519 -4.2519 4.2519 -4.2519 4.2519 -4.2519 4.2519 -4.2519 4.2519 -4.2519 4.2519 -4.2519 4.2519 -4.2519 4.2519 -4.2519 4.2519 -4.2519 4.2519 -4.2519 4.2519 -4.2519 4.2519 -4.2519 4.2519 -4.2519 4.2519 -4.2519 4.2519 -4.2519 4.2519 -4.2519 4.2519 -4.2519 4.2519 -4.2519 4.2519 -4.2519 4.2519 -4.2519 4.2519 -4.2519 4.2519 -4.2519 4.2519 -4.2519 4.2519 -4.2519 4.2519"
         style="fill:none;stroke:#0a3470;stroke-width:4;stroke-linecap:round;stroke-linejoin:round;stroke-dasharray:none"
         id="path29" />
      <path
         d="m 97.9078,276.5426 v 37.8533 4.252 -4.252 4.252 -4.252 4.252 -4.252 4.252 -4.252 4.252 -4.252 4.252 -4.252 4.252 -4.252 4.252 -4.252 4.252 -4.252 4.252 -4.252 4.252 -4.252 4.252 -4.252 4.252 -4.252 4.252 -4.252 4.252 -4.252 4.252 -4.252 4.252 -4.252 4.252 -4.252 4.252 -4.252 4.252 -4.252 4.252 -4.252 4.252 -4.252 4.252 -4.252 4.252 -4.252 4.252 -4.252"
         style="fill:none;stroke:#0a3470;stroke-width:4;stroke-linecap:round;stroke-linejoin:round;stroke-dasharray:none"
         id="path30" />
      <path
         d="m 110.7097,326.7332 15.1123,-9.4075 1.6975,-1.0567 -1.6975,1.0567 1.6975,-1.0567 -1.6975,1.0567 1.6975,-1.0567 -1.6975,1.0567 1.6975,-1.0567 -1.6975,1.0567 1.6975,-1.0567 -1.6975,1.0567 1.6975,-1.0567 -1.6975,1.0567 1.6975,-1.0567 -1.6975,1.0567 1.6975,-1.0567 -1.6975,1.0567 1.6975,-1.0567 -1.6975,1.0567 1.6975,-1.0567 -1.6975,1.0567 1.6975,-1.0567 -1.6975,1.0567 1.6975,-1.0567 -1.6975,1.0567 1.6975,-1.0567 -1.6975,1.0567 1.6975,-1.0567 -1.6975,1.0567 1.6975,-1.0567 -1.6975,1.0567 1.6975,-1.0567 -1.6975,1.0567 1.6975,-1.0567 -1.6975,1.0567 1.6975,-1.0567 -1.6975,1.0567 1.6975,-1.0567 -1.6975,1.0567 1.6975,-1.0567 -1.6975,1.0567 1.6975,-1.0567 -1.6975,1.0567 1.6975,-1.0567 -1.6975,1.0567 1.6975,-1.0567 -1.6975,1.0567 1.6975,-1.0567 -1.6975,1.0567 1.6975,-1.0567 -1.6975,1.0567"
         style="fill:none;stroke:#0a3470;stroke-width:4;stroke-linecap:square;stroke-linejoin:round;stroke-dasharray:none"
         id="path31" />
      <path
         d="m 110.767,339.389 26.372,16.4166 2.9623,1.8441 -2.9623,-1.8441 2.9623,1.8441 -2.9623,-1.8441 2.9623,1.8441 -2.9623,-1.8441 2.9623,1.8441 -2.9623,-1.8441 2.9623,1.8441 -2.9623,-1.8441 2.9623,1.8441 -2.9623,-1.8441 2.9623,1.8441 -2.9623,-1.8441 2.9623,1.8441 -2.9623,-1.8441 2.9623,1.8441 -2.9623,-1.8441 2.9623,1.8441 -2.9623,-1.8441 2.9623,1.8441 -2.9623,-1.8441 2.9623,1.8441 -2.9623,-1.8441 2.9623,1.8441 -2.9623,-1.8441 2.9623,1.8441 -2.9623,-1.8441 2.9623,1.8441 -2.9623,-1.8441 2.9623,1.8441 -2.9623,-1.8441 2.9623,1.8441 -2.9623,-1.8441 2.9623,1.8441 -2.9623,-1.8441 2.9623,1.8441 -2.9623,-1.8441 2.9623,1.8441 -2.9623,-1.8441 2.9623,1.8441 -2.9623,-1.8441 2.9623,1.8441 -2.9623,-1.8441 2.9623,1.8441 -2.9623,-1.8441 2.9623,1.8441 -2.9623,-1.8441 2.9623,1.8441 -2.9623,-1.8441"
         style="fill:none;stroke:#0a3470;stroke-width:4;stroke-linecap:square;stroke-linejoin:round;stroke-dasharray:none"
         id="path32" />
      <path
         d="m 86.8863,326.7978 -25.9556,-16.1574 -2.9155,-1.8149 2.9155,1.8149 -2.9155,-1.8149 2.9155,1.8149 -2.9155,-1.8149 2.9155,1.8149 -2.9155,-1.8149 2.9155,1.8149 -2.9155,-1.8149 2.9155,1.8149 -2.9155,-1.8149 2.9155,1.8149 -2.9155,-1.8149 2.9155,1.8149 -2.9155,-1.8149 2.9155,1.8149 -2.9155,-1.8149 2.9155,1.8149 -2.9155,-1.8149 2.9155,1.8149 -2.9155,-1.8149 2.9155,1.8149 -2.9155,-1.8149 2.9155,1.8149 -2.9155,-1.8149 2.9155,1.8149 -2.9155,-1.8149 2.9155,1.8149 -2.9155,-1.8149 2.9155,1.8149 -2.9155,-1.8149 2.9155,1.8149 -2.9155,-1.8149 2.9155,1.8149 -2.9155,-1.8149 2.9155,1.8149 -2.9155,-1.8149 2.9155,1.8149 -2.9155,-1.8149 2.9155,1.8149 -2.9155,-1.8149 2.9155,1.8149 -2.9155,-1.8149 2.9155,1.8149 -2.9155,-1.8149 2.9155,1.8149 -2.9155,-1.8149 2.9155,1.8149 -2.9155,-1.8149 2.9155,1.8149"
         style="fill:none;stroke:#0a3470;stroke-width:4;stroke-linecap:square;stroke-linejoin:round;stroke-dasharray:none"
         id="path33" />
      <path
         d="m 87.0114,339.4426 -15.5867,9.7027 -1.7509,1.0899 1.7509,-1.0899 -1.7509,1.0899 1.7509,-1.0899 -1.7509,1.0899 1.7509,-1.0899 -1.7509,1.0899 1.7509,-1.0899 -1.7509,1.0899 1.7509,-1.0899 -1.7509,1.0899 1.7509,-1.0899 -1.7509,1.0899 1.7509,-1.0899 -1.7509,1.0899 1.7509,-1.0899 -1.7509,1.0899 1.7509,-1.0899 -1.7509,1.0899 1.7509,-1.0899 -1.7509,1.0899 1.7509,-1.0899 -1.7509,1.0899 1.7509,-1.0899 -1.7509,1.0899 1.7509,-1.0899 -1.7509,1.0899 1.7509,-1.0899 -1.7509,1.0899 1.7509,-1.0899 -1.7509,1.0899 1.7509,-1.0899 -1.7509,1.0899 1.7509,-1.0899 -1.7509,1.0899 1.7509,-1.0899 -1.7509,1.0899 1.7509,-1.0899 -1.7509,1.0899 1.7509,-1.0899 -1.7509,1.0899 1.7509,-1.0899 -1.7509,1.0899 1.7509,-1.0899 -1.7509,1.0899 1.7509,-1.0899 -1.7509,1.0899 1.7509,-1.0899 -1.7509,1.0899 1.7509,-1.0899"
         style="fill:none;stroke:#0a3470;stroke-width:4;stroke-linecap:square;stroke-linejoin:round;stroke-dasharray:none"
         id="path34" />
      <path
         d="m 112.3008,333.0331 h 19.5706 2.1983 -2.1983 2.1983 -2.1983 2.1983 -2.1983 2.1983 -2.1983 2.1983 -2.1983 2.1983 -2.1983 2.1983 -2.1983 2.1983 -2.1983 2.1983 -2.1983 2.1983 -2.1983 2.1983 -2.1983 2.1983 -2.1983 2.1983 -2.1983 2.1983 -2.1983 2.1983 -2.1983 2.1983 -2.1983 2.1983 -2.1983 2.1983 -2.1983 2.1983 -2.1983 2.1983 -2.1983 2.1983 -2.1983 2.1983 -2.1983 2.1983 -2.1983 2.1983 -2.1983 2.1983 -2.1983"
         style="fill:none;stroke:#0a3470;stroke-width:4;stroke-linecap:square;stroke-linejoin:round;stroke-dasharray:none"
         id="path35" />
      <path
         d="m 97.9078,314.3959 v 7.3177"
         style="fill:none;stroke:#0a3470;stroke-width:4;stroke-linecap:butt;stroke-linejoin:bevel;stroke-dasharray:none"
         id="path36" />
      <path
         d="m 97.9078,351.8957 v -7.3176"
         style="fill:none;stroke:#0a3470;stroke-width:4;stroke-linecap:butt;stroke-linejoin:bevel;stroke-dasharray:none"
         id="path37" />
      <path
         d="m 105.4959,321.1495 14.4696,-26.4971 1.6253,-2.9763 -1.6253,2.9763 1.6253,-2.9763 -1.6253,2.9763 1.6253,-2.9763 -1.6253,2.9763 1.6253,-2.9763 -1.6253,2.9763 1.6253,-2.9763 -1.6253,2.9763 1.6253,-2.9763 -1.6253,2.9763 1.6253,-2.9763 -1.6253,2.9763 1.6253,-2.9763 -1.6253,2.9763 1.6253,-2.9763 -1.6253,2.9763 1.6253,-2.9763 -1.6253,2.9763 1.6253,-2.9763 -1.6253,2.9763 1.6253,-2.9763 -1.6253,2.9763 1.6253,-2.9763 -1.6253,2.9763 1.6253,-2.9763 -1.6253,2.9763 1.6253,-2.9763 -1.6253,2.9763 1.6253,-2.9763 -1.6253,2.9763 1.6253,-2.9763 -1.6253,2.9763 1.6253,-2.9763 -1.6253,2.9763 1.6253,-2.9763 -1.6253,2.9763 1.6253,-2.9763 -1.6253,2.9763 1.6253,-2.9763 -1.6253,2.9763 1.6253,-2.9763 -1.6253,2.9763 1.6253,-2.9763 -1.6253,2.9763 1.6253,-2.9763 -1.6253,2.9763 1.6253,-2.9763 -1.6253,2.9763"
         style="fill:none;stroke:#0a3470;stroke-width:4;stroke-linecap:square;stroke-linejoin:round;stroke-dasharray:none"
         id="path38" />
      <path
         d="m 105.5931,344.7315 8.542,15.6422 0.9595,1.757 -0.9595,-1.757 0.9595,1.757 -0.9595,-1.757 0.9595,1.757 -0.9595,-1.757 0.9595,1.757 -0.9595,-1.757 0.9595,1.757 -0.9595,-1.757 0.9595,1.757 -0.9595,-1.757 0.9595,1.757 -0.9595,-1.757 0.9595,1.757 -0.9595,-1.757 0.9595,1.757 -0.9595,-1.757 0.9595,1.757 -0.9595,-1.757 0.9595,1.757 -0.9595,-1.757 0.9595,1.757 -0.9595,-1.757 0.9595,1.757 -0.9595,-1.757 0.9595,1.757 -0.9595,-1.757 0.9595,1.757 -0.9595,-1.757 0.9595,1.757 -0.9595,-1.757 0.9595,1.757 -0.9595,-1.757 0.9595,1.757 -0.9595,-1.757 0.9595,1.757 -0.9595,-1.757 0.9595,1.757 -0.9595,-1.757 0.9595,1.757 -0.9595,-1.757 0.9595,1.757 -0.9595,-1.757 0.9595,1.757 -0.9595,-1.757 0.9595,1.757 -0.9595,-1.757 0.9595,1.757 -0.9595,-1.757"
         style="fill:none;stroke:#0a3470;stroke-width:4;stroke-linecap:square;stroke-linejoin:round;stroke-dasharray:none"
         id="path39" />
      <path
         d="m 92.1198,321.5187 -9.7279,-16.3139 -1.0927,-1.8325 1.0927,1.8325 -1.0927,-1.8325 1.0927,1.8325 -1.0927,-1.8325 1.0927,1.8325 -1.0927,-1.8325 1.0927,1.8325 -1.0927,-1.8325 1.0927,1.8325 -1.0927,-1.8325 1.0927,1.8325 -1.0927,-1.8325 1.0927,1.8325 -1.0927,-1.8325 1.0927,1.8325 -1.0927,-1.8325 1.0927,1.8325 -1.0927,-1.8325 1.0927,1.8325 -1.0927,-1.8325 1.0927,1.8325 -1.0927,-1.8325 1.0927,1.8325 -1.0927,-1.8325 1.0927,1.8325 -1.0927,-1.8325 1.0927,1.8325 -1.0927,-1.8325 1.0927,1.8325 -1.0927,-1.8325 1.0927,1.8325 -1.0927,-1.8325 1.0927,1.8325 -1.0927,-1.8325 1.0927,1.8325 -1.0927,-1.8325 1.0927,1.8325 -1.0927,-1.8325 1.0927,1.8325 -1.0927,-1.8325 1.0927,1.8325 -1.0927,-1.8325 1.0927,1.8325 -1.0927,-1.8325 1.0927,1.8325 -1.0927,-1.8325 1.0927,1.8325 -1.0927,-1.8325 1.0927,1.8325"
         style="fill:none;stroke:#0a3470;stroke-width:4;stroke-linecap:square;stroke-linejoin:round;stroke-dasharray:none"
         id="path40" />
      <path
         d="m 91.719,344.4959 -16.1061,27.0102 -1.8091,3.034 1.8091,-3.034 -1.8091,3.034 1.8091,-3.034 -1.8091,3.034 1.8091,-3.034 -1.8091,3.034 1.8091,-3.034 -1.8091,3.034 1.8091,-3.034 -1.8091,3.034 1.8091,-3.034 -1.8091,3.034 1.8091,-3.034 -1.8091,3.034 1.8091,-3.034 -1.8091,3.034 1.8091,-3.034 -1.8091,3.034 1.8091,-3.034 -1.8091,3.034 1.8091,-3.034 -1.8091,3.034 1.8091,-3.034 -1.8091,3.034 1.8091,-3.034 -1.8091,3.034 1.8091,-3.034 -1.8091,3.034 1.8091,-3.034 -1.8091,3.034 1.8091,-3.034 -1.8091,3.034 1.8091,-3.034 -1.8091,3.034 1.8091,-3.034 -1.8091,3.034 1.8091,-3.034 -1.8091,3.034 1.8091,-3.034 -1.8091,3.034 1.8091,-3.034 -1.8091,3.034 1.8091,-3.034 -1.8091,3.034 1.8091,-3.034 -1.8091,3.034 1.8091,-3.034 -1.8091,3.034 1.8091,-3.034"
         style="fill:none;stroke:#0a3470;stroke-width:4;stroke-linecap:square;stroke-linejoin:round;stroke-dasharray:none"
         id="path41" />
      <path
         d="M 98.84,321.5333 A 11.6222,11.6222 0 0 1 110.4622,333.1555 11.6222,11.6222 0 1 1 98.84,321.5333 Z"
         style="fill:none;stroke:#ffffff;stroke-width:0.5669;stroke-linecap:butt;stroke-linejoin:miter;stroke-dasharray:none"
         id="path42" />
      <path
         d="m 90.1326,333.0333 h -50.0815 -5.6255 5.6255 -5.6255 5.6255 -5.6255 5.6255 -5.6255 5.6255 -5.6255 5.6255 -5.6255 5.6255 -5.6255 5.6255 -5.6255 5.6255 -5.6255 5.6255 -5.6255 5.6255 -5.6255 5.6255 -5.6255 5.6255 -5.6255 5.6255 -5.6255 5.6255 -5.6255 5.6255 -5.6255 5.6255 -5.6255 5.6255 -5.6255 5.6255 -5.6255 5.6255 -5.6255 5.6255 -5.6255 5.6255 -5.6255 5.6255 -5.6255 5.6255 -5.6255 5.6255 -5.6255 5.6255"
         style="fill:none;stroke:#0a3470;stroke-width:4;stroke-linecap:square;stroke-linejoin:round;stroke-dasharray:none"
         id="path43" />
      <path
         d="m 98.8398,326.0687 a 7.0866,7.0866 0 0 1 7.0867,7.0866 7.0866,7.0866 0 1 1 -7.0867,-7.0866 z"
         style="fill:#7bb8bf;fill-rule:evenodd"
         id="path44" />
    </g>
    <g
       id="Layer1005">
      <path
         d="M 502.5986,333.8804 H 378.3373 v 2.0002 h 124.2613 v 3.0943 l 9.5045,-4.0944 -9.5045,-4.0944 z"
         style="fill:#0a3470;fill-rule:evenodd"
         id="path45" />
      <g
         id="Layer1006">
        <path
           d="m 488.6575,289.491 c -0.1264,2.0101 -0.2486,3.9929 -0.3657,5.9474 -5.2429,87.3578 -1.5826,118.1554 -10.4913,5.1287 -2.6473,-15.1248 -6.0015,43.575 -9.7092,56.9809 -2.0608,7.4512 -3.0546,1.3485 -5.6291,-40.6978 -0.1664,-2.7187 -0.1298,-5.8833 -0.5632,-8.8676 -0.635,-4.3714 -1.8442,0.1542 -2.5279,7.7337 -1.7555,19.4621 -4.6361,58.2035 -11.5209,9.9666 -1.9899,-13.9422 -5.2313,44.6743 -11.5214,1.9228 -2.0308,-13.8028 -5.633,21.0886 -9.2274,20.9403 -4.1646,-0.1714 -2.2464,-33.4921 -6.1934,-29.7884 -1.1313,1.0619 -2.0233,7.6621 -2.281,9.7614 -1.3544,11.0293 0.055,23.6064 -3.5184,32.8969 -1.4437,3.7536 -3.4594,-8.3109 -3.9903,-18.8583 -0.8549,-16.9889 -0.2186,-31.2268 -2.7904,-32.9256 -0.8258,-0.5451 -2.9798,-0.8146 -3.7307,25.2485"
           style="fill:none;stroke:#0a3470;stroke-width:2.0001;stroke-linecap:round;stroke-linejoin:round;stroke-dasharray:none"
           id="path46" />
        <text
           x="505.2543"
           y="347.09271"
           id="text46"><tspan
             font-family="Arial"
             font-size="11px"
             fill="#0a3470"
             id="tspan46">t</tspan></text>
      </g>
    </g>
    <g
       id="Layer1007">
      <path
         d="m 241.5589,299.6629 h 9.343 v -2.9492 c 0,-2.3468 1.9199,-4.267 4.2667,-4.267 h 3.9537 v -9.2792 h 4.5355 v 9.2792 h 4.2519 v -9.2792 h 4.5355 v 9.2792 h 4.2519 v -9.2792 h 4.5355 v 9.2792 h 4.2519 v -9.2792 h 4.5355 v 9.2792 h 4.2519 v -9.2792 h 4.5355 v 9.2792 h 4.2519 v -9.2792 h 4.5355 v 9.2792 h 4.2519 v -9.2792 h 4.5355 v 9.2792 h 3.9537 c 2.3468,0 4.2667,1.9202 4.2667,4.267 v 2.9492 h 9.3722 v 4.5354 h -9.3722 v 4.252 h 9.3722 v 4.5354 h -9.3722 v 4.252 h 9.3722 v 4.5354 h -9.3722 v 4.252 h 9.3722 v 4.5354 h -9.3722 v 4.252 h 9.3722 v 4.5354 h -9.3722 v 4.252 h 9.3722 v 4.5354 h -9.3722 v 4.252 h 9.3722 v 4.5354 h -9.3722 v 4.9581 c 0,2.3468 -1.9199,4.2667 -4.2667,4.2667 h -3.9537 v 9.4076 h -4.5355 v -9.4076 h -4.2519 v 9.4076 h -4.5355 v -9.4076 h -4.2519 v 9.4076 h -4.5355 v -9.4076 H 290.02 v 9.4076 h -4.5355 v -9.4076 h -4.2519 v 9.4076 h -4.5355 v -9.4076 h -4.2519 v 9.4076 h -4.5355 v -9.4076 h -4.2519 v 9.4076 h -4.5355 v -9.4076 h -3.9537 c -2.3468,0 -4.2667,-1.9199 -4.2667,-4.2667 v -4.9581 h -9.343 v -4.5354 h 9.343 v -4.252 h -9.343 v -4.5354 h 9.343 v -4.252 h -9.343 v -4.5354 h 9.343 v -4.252 h -9.343 v -4.5354 h 9.343 v -4.252 h -9.343 v -4.5354 h 9.343 v -4.252 h -9.343 v -4.5354 h 9.343 v -4.252 h -9.343 z"
         style="fill:#0a3470;fill-rule:evenodd"
         id="path47" />
      <path
         d="m 256.5711,301.7266 v 55.1413 q 0,3.6104 3.6105,3.6104 h 55.1413 q 3.6105,0 3.6105,-3.6104 v -55.1413 q 0,-3.6105 -3.6105,-3.6105 h -55.1413 q -3.6105,0 -3.6105,3.6105 z"
         style="fill:#ffffff;fill-rule:evenodd"
         id="path48" />
      <path
         d="m 260.8231,305.4862 v 47.6221 q 0,3.1181 3.1181,3.1181 h 47.6221 q 3.1181,0 3.1181,-3.1181 v -47.6221 q 0,-3.1181 -3.1181,-3.1181 h -47.6221 q -3.1181,0 -3.1181,3.1181 z"
         style="fill:#3076b2;fill-rule:evenodd"
         id="path49" />
      <g
         id="Layer1008">
        <path
           d="M 333.9465,354.655 H 347.728"
           style="fill:none;stroke:#0a3470;stroke-width:1.3;stroke-linecap:butt;stroke-linejoin:miter;stroke-dasharray:none"
           id="path50" />
        <path
           d="M 333.9465,337.0802 H 347.728"
           style="fill:none;stroke:#0a3470;stroke-width:1.3;stroke-linecap:butt;stroke-linejoin:miter;stroke-dasharray:none"
           id="path51" />
        <path
           d="M 333.9465,328.2928 H 347.728"
           style="fill:none;stroke:#0a3470;stroke-width:1.3;stroke-linecap:butt;stroke-linejoin:miter;stroke-dasharray:none"
           id="path52" />
        <path
           d="m 333.9465,310.068 h 6.0284 l 7.7471,-8.3288 -0.004,1.8905 -7.1798,7.7383 h -6.5917 z"
           style="fill:#0a3470;fill-rule:evenodd"
           id="path53" />
        <path
           d="m 333.9465,318.8554 h 9.6327 l 4.1343,-4.8654 0.0193,1.997 -3.5586,4.1684 h -10.2277 z"
           style="fill:#0a3470;fill-rule:evenodd"
           id="path54" />
        <path
           d="M 333.9465,345.8676 H 347.728"
           style="fill:none;stroke:#0a3470;stroke-width:1.3;stroke-linecap:butt;stroke-linejoin:miter;stroke-dasharray:none"
           id="path55" />
      </g>
      <g
         id="Layer1009">
        <path
           d="m 278.9649,374.8544 v 34.3893"
           style="fill:#0a3470;fill-rule:evenodd;stroke:#0a3470;stroke-width:1.3;stroke-linecap:butt;stroke-linejoin:miter;stroke-dasharray:none"
           id="path56" />
        <path
           d="m 287.7523,374.8544 v 40.82"
           style="fill:#0a3470;fill-rule:evenodd;stroke:#0a3470;stroke-width:1.3;stroke-linecap:butt;stroke-linejoin:miter;stroke-dasharray:none"
           id="path57" />
        <path
           d="m 305.3271,374.8544 v 15.1574"
           style="fill:#0a3470;fill-rule:evenodd;stroke:#0a3470;stroke-width:1.3;stroke-linecap:butt;stroke-linejoin:miter;stroke-dasharray:none"
           id="path58" />
        <path
           d="m 314.1145,374.8544 v 8.1272"
           style="fill:#0a3470;fill-rule:evenodd;stroke:#0a3470;stroke-width:1.3;stroke-linecap:butt;stroke-linejoin:miter;stroke-dasharray:none"
           id="path59" />
        <path
           d="m 296.5397,374.8544 v 12.6099 l -2.3792,2.85 v 13.3001 l 7.6505,6.5716"
           style="fill:#0a3470;fill-rule:evenodd;stroke:#0a3470;stroke-width:1.3;stroke-linecap:butt;stroke-linejoin:miter;stroke-dasharray:none"
           id="path60" />
        <path
           d="m 270.1774,374.8544 v 22.0192"
           style="fill:#0a3470;fill-rule:evenodd;stroke:#0a3470;stroke-width:1.3;stroke-linecap:butt;stroke-linejoin:miter;stroke-dasharray:none"
           id="path61" />
        <path
           d="m 261.39,374.8544 v 14.9788"
           style="fill:#0a3470;fill-rule:evenodd;stroke:#0a3470;stroke-width:1.3;stroke-linecap:butt;stroke-linejoin:miter;stroke-dasharray:none"
           id="path62" />
      </g>
      <g
         id="Layer1010">
        <path
           d="m 288.3706,285.7918 c -0.0251,-5.3474 -0.0517,-10.6948 -0.0755,-16.0422 -10e-4,-0.2994 0.4689,-0.7206 1.2551,-0.5423 0.7626,0.173 1.1831,-0.0471 1.3114,-1.046 0.2548,-1.9808 -2.9643,-1.3686 -3.4064,-0.0388 -0.1313,0.3951 -0.2201,0.9467 -0.2183,1.2936 l 0.0767,16.3797 z"
           style="fill:#0a3470;fill-rule:evenodd;stroke:#0a3470;stroke-width:0.1001;stroke-linecap:butt;stroke-linejoin:miter;stroke-dasharray:none"
           id="path63" />
        <path
           d="m 305.3271,283.2066 v -7.1821"
           style="fill:none;stroke:#0a3470;stroke-width:1.3;stroke-linecap:butt;stroke-linejoin:miter;stroke-dasharray:none"
           id="path64" />
        <path
           d="M 314.1145,283.2066 V 273.0634"
           style="fill:none;stroke:#0a3470;stroke-width:1.3;stroke-linecap:butt;stroke-linejoin:miter;stroke-dasharray:none"
           id="path65" />
        <path
           d="M 278.9649,283.2066 V 268.56"
           style="fill:none;stroke:#0a3470;stroke-width:1.3;stroke-linecap:butt;stroke-linejoin:miter;stroke-dasharray:none"
           id="path66" />
        <path
           d="m 261.39,283.2066 v -8.8843"
           style="fill:none;stroke:#0a3470;stroke-width:1.3;stroke-linecap:butt;stroke-linejoin:miter;stroke-dasharray:none"
           id="path67" />
        <path
           d="M 296.5397,283.2066 V 261.1874"
           style="fill:none;stroke:#0a3470;stroke-width:1.3;stroke-linecap:butt;stroke-linejoin:miter;stroke-dasharray:none"
           id="path68" />
        <path
           d="m 270.1774,283.2066 v -6.2441"
           style="fill:none;stroke:#0a3470;stroke-width:1.3;stroke-linecap:butt;stroke-linejoin:miter;stroke-dasharray:none"
           id="path69" />
      </g>
      <g
         id="Layer1011">
        <path
           d="m 222.7657,320.1313 -8.1887,-8.0391 0.8436,-0.8481 8.9714,8.8872 z"
           style="fill:#0a3470;fill-rule:evenodd;stroke:#0a3470;stroke-width:0.1001;stroke-linecap:butt;stroke-linejoin:miter;stroke-dasharray:none"
           id="path70" />
        <path
           d="m 203.6908,317.1112 c -1.7915,-0.0221 -3.2471,-1.3138 -3.5271,-3.0214 l -12.3174,-0.0774 -2.8052,2.8556 v -1.6826 l 2.2995,-2.376 12.8302,0.0808 c 0.301,-1.7039 1.7742,-2.977 3.5654,-2.977 1.9961,0.0247 3.5762,1.6257 3.5762,3.6219 -0.0247,1.9961 -1.6254,3.5761 -3.6216,3.5761 z m -2.3765,-3.6141 c 0,1.3158 1.061,2.4145 2.3842,2.4145 1.3158,0 2.4143,-1.061 2.4143,-2.3842 0.0241,-1.3263 -1.0721,-2.3907 -2.3843,-2.4145 -1.3158,0 -2.4142,1.0615 -2.4142,2.3842 z"
           style="fill:#0a3470;fill-rule:evenodd;stroke:#0a3470;stroke-width:0.216;stroke-linecap:butt;stroke-linejoin:miter;stroke-dasharray:none"
           id="path71" />
        <path
           d="m 212.0338,323.6176 c -6.0461,-0.0283 -12.0921,-0.0584 -18.1381,-0.0853 -0.3384,-0.001 -0.8147,0.5301 -0.6131,1.419 0.1956,0.8623 -0.0533,1.3377 -1.1826,1.4828 -2.2397,0.288 -1.5475,-3.3517 -0.044,-3.8514 0.4468,-0.1486 1.0704,-0.2489 1.4627,-0.2469 l 18.5196,0.0867 z"
           style="fill:#0a3470;fill-rule:evenodd;stroke:#0a3470;stroke-width:0.216;stroke-linecap:butt;stroke-linejoin:miter;stroke-dasharray:none"
           id="path72" />
        <path
           d="m 212.0338,323.6176 c -6.0461,-0.0283 -12.0921,-0.0584 -18.1381,-0.0853 -0.3384,-0.001 -0.8147,0.5301 -0.6131,1.419 0.1956,0.8623 -0.0533,1.3377 -1.1826,1.4828 -2.2397,0.288 -1.5475,-3.3517 -0.044,-3.8514 0.4468,-0.1486 1.0704,-0.2489 1.4627,-0.2469 l 18.5196,0.0867 z"
           style="fill:#0a3470;fill-rule:evenodd;stroke:#0a3470;stroke-width:0.1001;stroke-linecap:butt;stroke-linejoin:miter;stroke-dasharray:none"
           id="path73" />
        <path
           d="m 185.0457,330.3462 c 6.046,0.0284 12.092,0.0584 18.138,0.0853 0.3385,10e-4 0.8147,-0.5301 0.6132,-1.419 -0.1956,-0.8623 0.0532,-1.3377 1.1826,-1.4828 2.2396,-0.288 1.5474,3.3517 0.0439,3.8514 -0.4467,0.1486 -1.0704,0.2489 -1.4627,0.2469 l -18.5196,-0.0867 z"
           style="fill:#0a3470;fill-rule:evenodd;stroke:#0a3470;stroke-width:0.1001;stroke-linecap:butt;stroke-linejoin:miter;stroke-dasharray:none"
           id="path74" />
        <path
           d="m 198.7761,374.9227 5.9817,-5.2903 v -24.0097"
           style="fill:none;stroke:#0a3470;stroke-width:1.3;stroke-linecap:butt;stroke-linejoin:miter;stroke-dasharray:none"
           id="path75" />
        <path
           d="M 194.5511,365.5358 V 344.3615"
           style="fill:none;stroke:#0a3470;stroke-width:1.3;stroke-linecap:butt;stroke-linejoin:miter;stroke-dasharray:none"
           id="path76" />
        <path
           d="m 241.6207,345.8676 h -10.5616 l -8.354,9.5763 0.009,24.4579 6.1563,6.9193 h 13.7982"
           style="fill:none;stroke:#0a3470;stroke-width:1.3;stroke-linecap:butt;stroke-linejoin:miter;stroke-dasharray:none"
           id="path77" />
        <path
           d="m 241.6207,337.0802 h -12.9963 l -16.0183,14.3697 0.0439,25.1608"
           style="fill:none;stroke:#0a3470;stroke-width:1.3;stroke-linecap:butt;stroke-linejoin:miter;stroke-dasharray:none"
           id="path78" />
        <path
           d="m 241.9534,328.2928 h -18.8651 l -10.2744,10.012 h -27.7728"
           style="fill:none;stroke:#0a3470;stroke-width:1.3;stroke-linecap:butt;stroke-linejoin:miter;stroke-dasharray:none"
           id="path79" />
        <path
           d="m 241.6207,310.718 h -16.604 l -8.0121,-8.0121 h -18.2557 l -4.4674,4.4671"
           style="fill:none;stroke:#0a3470;stroke-width:1.3;stroke-linecap:butt;stroke-linejoin:miter;stroke-dasharray:none"
           id="path80" />
        <path
           d="m 241.5589,301.9306 h -12.6933 l -9.165,-9.165 h -25.5047 l -8.5187,8.5184 v 7.5342"
           style="fill:none;stroke:#0a3470;stroke-width:1.3;stroke-linecap:butt;stroke-linejoin:miter;stroke-dasharray:none"
           id="path81" />
        <path
           d="m 241.7383,302.0618 -17.4246,-16.4279 h -31.814 l -6.8349,6.8148 -0.0307,-1.7875 6.1311,-6.1308 c 0.1182,-0.121 0.2829,-0.1964 0.4654,-0.1964 h 32.3388 c 0.1593,0.002 0.3189,0.06 0.4442,0.1777 l 17.6131,16.6056 z"
           style="fill:#0a3470;fill-rule:evenodd"
           id="path82" />
        <path
           d="m 241.6207,354.655 h -6.194 l -4.7756,5.0054 v 16.1136 l 5.6614,5.6616 7.0149,0.1324"
           style="fill:none;stroke:#0a3470;stroke-width:1.3;stroke-linecap:butt;stroke-linejoin:miter;stroke-dasharray:none"
           id="path83" />
        <path
           d="m 246.5912,379.7629 a 4.591,4.591 0 0 1 4.591,4.591 4.591,4.591 0 1 1 -4.591,-4.591 z"
           style="fill:none;stroke:#2f5b7e;stroke-width:1.1999;stroke-linecap:butt;stroke-linejoin:miter;stroke-dasharray:none"
           id="path84" />
        <path
           d="m 246.5912,379.7629 a 4.591,4.591 0 0 1 4.591,4.591 4.591,4.591 0 1 1 -4.591,-4.591 z"
           style="fill:none;stroke:#0a3470;stroke-width:1.3;stroke-linecap:butt;stroke-linejoin:miter;stroke-dasharray:none"
           id="path85" />
        <path
           d="m 221.5029,281.1971 a 2.8346,2.8346 0 0 1 2.8346,2.8347 2.8346,2.8346 0 1 1 -2.8346,-2.8347 z"
           style="fill:#0a3470;fill-rule:evenodd"
           id="path86" />
        <path
           d="m 212.6574,321.52 a 1.7008,1.7008 0 0 1 1.7008,1.7008 1.7008,1.7008 0 1 1 -1.7008,-1.7008 z"
           style="fill:#0a3470;fill-rule:evenodd"
           id="path87" />
      </g>
      <text
         x="270.59531"
         y="342.18539"
         id="text87"><tspan
           font-family="a_AvanteInt"
           font-size="36px"
           fill="#ffffff"
           id="tspan87">AI</tspan></text>
    </g>
    <g
       id="Layer1012">
      <g
         id="Layer1013">
        <path
           d="m 54.4354,56.9781 12.5022,-6.065 c 0.1403,-0.0678 0.3098,-0.0088 0.3776,0.1315 0.0195,0.0408 0.0286,0.0839 0.028,0.1264 0.046,1.4893 -1.0335,3.7454 -3.1787,6.0299 -1.7535,1.8677 -4.2273,3.7706 -7.3848,5.3022 -3.4901,1.6928 -6.1977,2.4191 -8.534,2.4916 -2.3485,0.0726 -4.311,-0.513 -6.3077,-1.4405 -0.1417,-0.0652 -0.2035,-0.2336 -0.1383,-0.3753 0.0289,-0.063 0.0782,-0.11 0.1363,-0.1372 z"
           style="fill:#0a3470;fill-rule:evenodd"
           id="path88" />
        <path
           d="M 59.9632,43.6768 C 49.8807,40.4603 38.8341,46.3598 38.8848,56.0931"
           style="fill:#000000;fill-rule:evenodd;stroke:#0a3470;stroke-width:1.5001;stroke-linecap:round;stroke-linejoin:round;stroke-dasharray:none"
           id="path89" />
        <path
           d="m 73.2691,131.2441 c 9.6196,5.7631 24.8337,-0.6919 24.9681,-11.8142"
           style="fill:#000000;fill-rule:evenodd;stroke:#0a3470;stroke-width:1.5001;stroke-linecap:round;stroke-linejoin:round;stroke-dasharray:none"
           id="path90" />
        <path
           d="M 58.3466,48.9129 C 50.0562,46.0125 46.1435,50.1902 45.1752,55.601"
           style="fill:#000000;fill-rule:evenodd;stroke:#0a3470;stroke-width:1.5001;stroke-linecap:round;stroke-linejoin:round;stroke-dasharray:none"
           id="path91" />
        <path
           d="m 54.0055,54.004 c -0.909,-0.3181 -1.3381,0.14 -1.4442,0.7333"
           style="fill:#000000;fill-rule:evenodd;stroke:#0a3470;stroke-width:1.0001;stroke-linecap:round;stroke-linejoin:round;stroke-dasharray:none"
           id="path92" />
        <path
           d="m 76.6454,126.2395 c 8.1516,3.873 15.6759,-2.8516 16.6442,-8.2624"
           style="fill:#000000;fill-rule:evenodd;stroke:#0a3470;stroke-width:1.5001;stroke-linecap:round;stroke-linejoin:round;stroke-dasharray:none"
           id="path93" />
        <path
           d="m 78.6564,112.2823 2.9805,6.3414 c 0.5129,1.1072 0.5224,1.6953 1.6188,2.0975 0.6547,0.2401 1.6992,-0.1306 2.1038,-1.2334 0.2828,-0.771 -1.2413,-3.5176 -1.6221,-4.3397 l -1.9391,-4.279 z"
           style="fill:#0a3470;fill-rule:evenodd"
           id="path94" />
        <path
           d="M 49.5174,70.1635 61.1195,92.9337 78.1969,84.2323 66.5949,61.4621 Z"
           style="fill:#0a3470;fill-rule:evenodd"
           id="path95" />
        <path
           d="m 49.6972,80.4688 2.9691,5.8273 4.3704,-2.2268 -2.9691,-5.8274 z"
           style="fill:#0a3470;fill-rule:evenodd"
           id="path96" />
        <path
           d="m 70.7453,69.8264 2.9691,5.8273 4.3704,-2.2268 -2.9691,-5.8274 z"
           style="fill:#0a3470;fill-rule:evenodd"
           id="path97" />
        <g
           id="Layer1014">
          <path
             d="m 39.015,84.7207 7.6973,-3.9886 -2.9914,-5.7729 -7.6974,3.9886 z"
             style="fill:#0a3470;fill-rule:evenodd"
             id="path98" />
          <path
             d="M 42.6041,91.6469 50.3014,87.6584 47.31,81.8855 39.6127,85.8741 Z"
             style="fill:#0a3470;fill-rule:evenodd"
             id="path99" />
          <path
             d="m 46.1932,98.5732 7.6974,-3.9886 -2.9915,-5.7728 -7.6973,3.9885 z"
             style="fill:#0a3470;fill-rule:evenodd"
             id="path100" />
          <path
             d="m 30.3232,89.2246 7.6974,-3.9885 -2.9915,-5.7729 -7.6973,3.9886 z"
             style="fill:#0a3470;fill-rule:evenodd"
             id="path101" />
          <path
             d="m 33.9123,96.1509 7.6974,-3.9886 -2.9915,-5.7728 -7.6973,3.9886 z"
             style="fill:#0a3470;fill-rule:evenodd"
             id="path102" />
          <path
             d="M 37.5014,103.0772 45.1988,99.0886 42.2074,93.3158 34.51,97.3043 Z"
             style="fill:#0a3470;fill-rule:evenodd"
             id="path103" />
          <path
             d="M 21.6314,93.7286 29.3288,89.7401 26.3373,83.9672 18.64,87.9558 Z"
             style="fill:#0a3470;fill-rule:evenodd"
             id="path104" />
          <path
             d="m 25.2205,100.6549 7.6974,-3.9886 -2.9914,-5.7728 -7.6974,3.9885 z"
             style="fill:#0a3470;fill-rule:evenodd"
             id="path105" />
          <path
             d="m 28.8097,107.5812 7.6973,-3.9886 -2.9914,-5.7729 -7.6974,3.9886 z"
             style="fill:#0a3470;fill-rule:evenodd"
             id="path106" />
        </g>
        <g
           id="Layer1015">
          <path
             d="m 39.015,84.7207 7.6973,-3.9886 -2.9914,-5.7729 -7.6974,3.9886 z"
             style="fill:#0a3470;fill-rule:evenodd"
             id="path107" />
          <path
             d="M 42.6041,91.6469 50.3014,87.6584 47.31,81.8855 39.6127,85.8741 Z"
             style="fill:#0a3470;fill-rule:evenodd"
             id="path108" />
          <path
             d="m 46.1932,98.5732 7.6974,-3.9886 -2.9915,-5.7728 -7.6973,3.9885 z"
             style="fill:#0a3470;fill-rule:evenodd"
             id="path109" />
          <path
             d="m 30.3232,89.2246 7.6974,-3.9885 -2.9915,-5.7729 -7.6973,3.9886 z"
             style="fill:#0a3470;fill-rule:evenodd"
             id="path110" />
          <path
             d="m 33.9123,96.1509 7.6974,-3.9886 -2.9915,-5.7728 -7.6973,3.9886 z"
             style="fill:#0a3470;fill-rule:evenodd"
             id="path111" />
          <path
             d="M 37.5014,103.0772 45.1988,99.0886 42.2074,93.3158 34.51,97.3043 Z"
             style="fill:#0a3470;fill-rule:evenodd"
             id="path112" />
          <path
             d="M 21.6314,93.7286 29.3288,89.7401 26.3373,83.9672 18.64,87.9558 Z"
             style="fill:#0a3470;fill-rule:evenodd"
             id="path113" />
          <path
             d="m 25.2205,100.6549 7.6974,-3.9886 -2.9914,-5.7728 -7.6974,3.9885 z"
             style="fill:#0a3470;fill-rule:evenodd"
             id="path114" />
          <path
             d="m 28.8097,107.5812 7.6973,-3.9886 -2.9914,-5.7729 -7.6974,3.9886 z"
             style="fill:#0a3470;fill-rule:evenodd"
             id="path115" />
        </g>
        <g
           id="Layer1016">
          <path
             d="m 94.087,56.2693 7.6974,-3.9885 -2.9914,-5.7729 -7.6974,3.9886 z"
             style="fill:#0a3470;fill-rule:evenodd"
             id="path116" />
          <path
             d="m 97.6762,63.1956 7.6973,-3.9886 -2.9914,-5.7728 -7.6974,3.9885 z"
             style="fill:#0a3470;fill-rule:evenodd"
             id="path117" />
          <path
             d="m 101.2653,70.1218 7.6973,-3.9885 -2.9914,-5.7729 -7.6974,3.9886 z"
             style="fill:#0a3470;fill-rule:evenodd"
             id="path118" />
          <path
             d="m 85.3953,60.7733 7.6973,-3.9886 -2.9914,-5.7728 -7.6974,3.9886 z"
             style="fill:#0a3470;fill-rule:evenodd"
             id="path119" />
          <path
             d="m 88.9844,67.6996 7.6973,-3.9886 -2.9914,-5.7728 -7.6974,3.9885 z"
             style="fill:#0a3470;fill-rule:evenodd"
             id="path120" />
          <path
             d="m 92.5735,74.6258 7.6973,-3.9885 -2.9914,-5.7729 -7.6973,3.9886 z"
             style="fill:#0a3470;fill-rule:evenodd"
             id="path121" />
          <path
             d="m 76.7035,65.2773 7.6973,-3.9886 -2.9914,-5.7728 -7.6974,3.9885 z"
             style="fill:#0a3470;fill-rule:evenodd"
             id="path122" />
          <path
             d="M 80.2926,72.2036 87.99,68.215 84.9985,62.4421 77.3012,66.4307 Z"
             style="fill:#0a3470;fill-rule:evenodd"
             id="path123" />
          <path
             d="m 83.8817,79.1298 7.6974,-3.9885 -2.9915,-5.7729 -7.6973,3.9886 z"
             style="fill:#0a3470;fill-rule:evenodd"
             id="path124" />
        </g>
        <path
           d="m 70.4134,95.5192 -0.0021,8e-4 -2.3498,-2.0899 6.5002,-3.1481 0.4403,3.1923 c 8.0477,-2.4703 17.0644,0.0763 21.8286,6.2005 L 60.5261,116.463 c -2.0485,-6.9834 1.0827,-14.1748 7.7181,-19.4394 0.6994,-0.5552 1.4245,-1.0559 2.1692,-1.5044 z"
           style="fill:#0a3470;fill-rule:evenodd;stroke:#0a3470;stroke-width:1.0001;stroke-linecap:butt;stroke-linejoin:round;stroke-dasharray:none"
           id="path125" />
      </g>
      <path
         d="M 195.9355,85.6213 C 178.914,80.202 156.7763,70.0041 129.1932,65.9605 c -7.3876,-1.0831 -11.7878,-1.9539 -19.5415,-2.4724 -0.03,-1.7552 -0.0598,-3.5104 -0.0898,-5.2656 12.8395,-0.2163 45.6846,8.7188 57.9413,14.3456 z"
         style="fill:#7bb8bf;fill-rule:evenodd"
         id="path126" />
      <path
         d="m 40.7168,152.5862 c -4.0326,-12.9069 -17.9403,-34.6388 -17.8322,-36.5244 -4.6976,2.4415 1.5295,-0.8603 -3.4848,1.8599 4.7772,7.7424 4.3979,10.5574 21.317,34.6645 z"
         style="fill:#7bb8bf;fill-rule:evenodd"
         id="path127" />
    </g>
  </g>
</svg>
