<?xml version="1.0" encoding="utf-8"?>
<!-- Generator: Adobe Illustrator 23.0.1, SVG Export Plug-In . SVG Version: 6.00 Build 0)  -->
<svg version="1.1" id="Layer_1" xmlns="http://www.w3.org/2000/svg" xmlns:xlink="http://www.w3.org/1999/xlink" x="0px" y="0px"
	 viewBox="0 0 71.57 21.68" style="enable-background:new 0 0 71.57 21.68;" xml:space="preserve">
<style type="text/css">
	.st0{fill:#E92328;}
	.st1{fill:#6D6E6E;}
</style>
<g>
	<g>
		<path class="st0" d="M1.05,18.08c-0.32-1.95,0.96-3.8,2.87-4.13c0.04-0.01,0.08-0.01,0.13-0.02c1.84-0.36,2.77-2.08,3.43-3.33l0,0
			C8.17,9.33,9.15,7.51,8.4,5.68h0C7.83,3.87,8.75,1.9,10.52,1.23c1.81-0.69,3.83,0.26,4.5,2.11c0.3,0.83,0.28,1.7,0.01,2.47h0
			c-0.63,1.61,0.06,3.17,0.99,4.84l0,0c0,0,0,0.01,0.01,0.01l0-0.01l0,0c0,0,0,0.01,0,0.01l0,0c0.7,1.26,1.66,2.99,3.57,3.27l0,0
			c0.01,0,0.03,0.01,0.04,0.01c1.9,0.33,3.19,2.18,2.87,4.13c-0.32,1.95-2.13,3.26-4.04,2.93c-0.86-0.15-1.59-0.61-2.11-1.24v0
			c-1.19-1.55-3.16-1.54-4.58-1.53l0,0c-1.42-0.01-3.4-0.03-4.6,1.53c-0.52,0.64-1.25,1.09-2.11,1.24
			C3.18,21.34,1.37,20.03,1.05,18.08L1.05,18.08z M15.88,15.66c0.21-1.46-0.69-3.11-1.28-4.17c-0.63-1.1-1.62-2.79-3.03-3.26
			c-1.22,0.63-2.08,2.15-2.64,3.17c-0.59,1.1-1.49,2.83-1.19,4.3c1.13,0.82,2.87,0.85,4.03,0.86
			C12.93,16.56,14.74,16.53,15.88,15.66L15.88,15.66z M16.02,10.66L16.02,10.66L16.02,10.66C16.02,10.66,16.02,10.66,16.02,10.66
			L16.02,10.66z M16.02,10.65L16.02,10.65L16.02,10.65L16.02,10.65L16.02,10.65z M16.02,10.66L16.02,10.66
			c-0.03-0.05-0.02-0.04-0.01-0.02c-0.04-0.07-0.08-0.14-0.07-0.11C15.96,10.55,15.98,10.59,16.02,10.66L16.02,10.66z M16.02,10.65
			L16.02,10.65c0-0.01-0.01-0.01-0.01-0.01C16.01,10.64,16.01,10.65,16.02,10.65L16.02,10.65z M15.92,10.48l0.02,0.04
			C15.93,10.5,15.92,10.49,15.92,10.48L15.92,10.48z"/>
	</g>
	<g>
		<path class="st1" d="M31.46,8.35h-2.35l-0.46,1.75h-1.82l2.67-8.53h1.58l2.68,8.53h-1.84L31.46,8.35z M29.49,6.91h1.59l-0.8-3.04
			L29.49,6.91z"/>
		<path class="st1" d="M37.55,6.98h-0.86v3.12h-1.72V1.56h2.75c0.86,0,1.53,0.22,2,0.67s0.71,1.08,0.71,1.91
			c0,1.13-0.41,1.93-1.24,2.38l1.49,3.49v0.08h-1.85L37.55,6.98z M36.69,5.54h0.98c0.34,0,0.6-0.11,0.77-0.34s0.26-0.53,0.26-0.92
			c0-0.86-0.33-1.28-1-1.28h-1.01V5.54z"/>
		<path class="st1" d="M43.71,10.09h-1.72V1.56h1.72V10.09z"/>
		<path class="st1" d="M49.07,7.86c0-0.35-0.09-0.61-0.27-0.79s-0.5-0.36-0.97-0.55c-0.86-0.32-1.47-0.7-1.85-1.14
			s-0.56-0.95-0.56-1.54c0-0.72,0.25-1.3,0.76-1.73s1.16-0.65,1.94-0.65c0.52,0,0.99,0.11,1.4,0.33s0.73,0.53,0.95,0.93
			s0.33,0.86,0.33,1.37h-1.72c0-0.4-0.08-0.7-0.25-0.91s-0.42-0.31-0.74-0.31c-0.3,0-0.54,0.09-0.7,0.27s-0.25,0.42-0.25,0.72
			c0,0.23,0.09,0.45,0.28,0.64s0.52,0.39,1,0.59c0.83,0.3,1.44,0.67,1.81,1.11s0.57,0.99,0.57,1.67c0,0.74-0.24,1.32-0.71,1.74
			s-1.12,0.63-1.93,0.63c-0.55,0-1.05-0.11-1.51-0.34s-0.81-0.55-1.06-0.97s-0.38-0.92-0.38-1.49h1.73c0,0.49,0.1,0.85,0.29,1.07
			s0.5,0.33,0.94,0.33C48.76,8.81,49.07,8.49,49.07,7.86z"/>
		<path class="st1" d="M57.53,3h-2.11v7.1h-1.73V3h-2.07V1.56h5.91V3z"/>
		<path class="st1" d="M62.98,6.4H60.3v2.26h3.18v1.43h-4.9V1.56h4.89V3H60.3v2.02h2.68V6.4z"/>
		<path class="st1" d="M67.28,6.8L66.6,7.66v2.44h-1.72V1.56h1.72v3.72l0.54-0.92l1.59-2.8h2.11L68.4,5.31l2.48,4.78h-2.04
			L67.28,6.8z"/>
	</g>
	<g>
		<g>
			<path class="st1" d="M30.61,18.21c0-0.37-0.1-0.66-0.3-0.86s-0.57-0.39-1.09-0.58c-0.53-0.19-0.93-0.39-1.21-0.59
				c-0.28-0.21-0.49-0.44-0.63-0.71c-0.14-0.26-0.21-0.57-0.21-0.91c0-0.59,0.2-1.08,0.59-1.46c0.4-0.38,0.91-0.57,1.55-0.57
				c0.44,0,0.83,0.1,1.17,0.29s0.61,0.47,0.79,0.82c0.18,0.35,0.28,0.73,0.28,1.15h-0.94c0-0.46-0.11-0.82-0.33-1.07
				s-0.54-0.38-0.96-0.38c-0.38,0-0.67,0.11-0.88,0.32c-0.21,0.21-0.31,0.51-0.31,0.89c0,0.32,0.11,0.58,0.34,0.79
				c0.23,0.21,0.57,0.4,1.05,0.57c0.73,0.24,1.26,0.54,1.58,0.9c0.32,0.36,0.47,0.82,0.47,1.39c0,0.6-0.2,1.09-0.59,1.45
				c-0.39,0.36-0.93,0.55-1.6,0.55c-0.43,0-0.83-0.09-1.2-0.28c-0.37-0.19-0.66-0.46-0.87-0.8c-0.21-0.34-0.32-0.74-0.32-1.18h0.94
				c0,0.46,0.13,0.82,0.39,1.08c0.26,0.26,0.61,0.38,1.05,0.38c0.41,0,0.72-0.11,0.93-0.32S30.61,18.57,30.61,18.21z"/>
			<path class="st1" d="M35.52,16.38l1.53-3.75h1.06l-2.12,4.68v2.78h-0.94v-2.78l-2.12-4.68h1.07L35.52,16.38z"/>
			<path class="st1" d="M43.13,18.21c0-0.37-0.1-0.66-0.3-0.86c-0.2-0.2-0.57-0.39-1.09-0.58c-0.53-0.19-0.93-0.39-1.21-0.59
				c-0.28-0.21-0.49-0.44-0.63-0.71s-0.21-0.57-0.21-0.91c0-0.59,0.2-1.08,0.59-1.46s0.91-0.57,1.55-0.57c0.44,0,0.83,0.1,1.17,0.29
				s0.61,0.47,0.79,0.82c0.18,0.35,0.28,0.73,0.28,1.15h-0.94c0-0.46-0.11-0.82-0.33-1.07c-0.22-0.25-0.54-0.38-0.96-0.38
				c-0.38,0-0.67,0.11-0.88,0.32c-0.21,0.21-0.31,0.51-0.31,0.89c0,0.32,0.11,0.58,0.34,0.79c0.23,0.21,0.57,0.4,1.05,0.57
				c0.74,0.24,1.26,0.54,1.58,0.9c0.32,0.36,0.47,0.82,0.47,1.39c0,0.6-0.2,1.09-0.59,1.45c-0.39,0.36-0.93,0.55-1.61,0.55
				c-0.43,0-0.83-0.09-1.2-0.28c-0.37-0.19-0.66-0.46-0.87-0.8c-0.21-0.34-0.32-0.74-0.32-1.18h0.94c0,0.46,0.13,0.82,0.39,1.08
				c0.26,0.26,0.61,0.38,1.05,0.38c0.41,0,0.72-0.11,0.93-0.32C43.02,18.86,43.13,18.57,43.13,18.21z"/>
			<path class="st1" d="M50.19,13.43h-1.96v6.66h-0.94v-6.66h-1.96v-0.8h4.86V13.43z"/>
			<path class="st1" d="M55.4,16.64h-2.64v2.65h3.08v0.8h-4.01v-7.46h3.96v0.8h-3.02v2.4h2.64V16.64z"/>
			<path class="st1" d="M59.1,12.63l1.95,6.09l1.95-6.09h1.21v7.46h-0.94v-2.91l0.09-2.91l-1.95,5.82h-0.72l-1.94-5.8l0.09,2.89
				v2.91h-0.94v-7.46H59.1z"/>
			<path class="st1" d="M69.93,18.21c0-0.37-0.1-0.66-0.3-0.86c-0.2-0.2-0.57-0.39-1.09-0.58c-0.53-0.19-0.93-0.39-1.21-0.59
				c-0.28-0.21-0.49-0.44-0.63-0.71s-0.21-0.57-0.21-0.91c0-0.59,0.2-1.08,0.59-1.46s0.91-0.57,1.55-0.57c0.44,0,0.83,0.1,1.17,0.29
				s0.61,0.47,0.79,0.82c0.18,0.35,0.28,0.73,0.28,1.15h-0.94c0-0.46-0.11-0.82-0.33-1.07c-0.22-0.25-0.54-0.38-0.96-0.38
				c-0.38,0-0.67,0.11-0.88,0.32c-0.21,0.21-0.31,0.51-0.31,0.89c0,0.32,0.11,0.58,0.34,0.79c0.23,0.21,0.57,0.4,1.05,0.57
				c0.74,0.24,1.26,0.54,1.58,0.9c0.32,0.36,0.47,0.82,0.47,1.39c0,0.6-0.2,1.09-0.59,1.45c-0.39,0.36-0.93,0.55-1.61,0.55
				c-0.43,0-0.83-0.09-1.2-0.28c-0.37-0.19-0.66-0.46-0.87-0.8c-0.21-0.34-0.32-0.74-0.32-1.18h0.94c0,0.46,0.13,0.82,0.39,1.08
				c0.26,0.26,0.61,0.38,1.05,0.38c0.41,0,0.72-0.11,0.93-0.32C69.82,18.86,69.93,18.57,69.93,18.21z"/>
		</g>
	</g>
</g>
</svg>
